<?xml version="1.0" encoding="UTF-8" standalone="no"?>
<svg
   xmlns:dc="http://purl.org/dc/elements/1.1/"
   xmlns:cc="http://creativecommons.org/ns#"
   xmlns:rdf="http://www.w3.org/1999/02/22-rdf-syntax-ns#"
   xmlns:svg="http://www.w3.org/2000/svg"
   xmlns="http://www.w3.org/2000/svg"
   xmlns:sodipodi="http://sodipodi.sourceforge.net/DTD/sodipodi-0.dtd"
   xmlns:inkscape="http://www.inkscape.org/namespaces/inkscape"
   viewBox="0 0 287.99982 70.645332"
   height="70.645332"
   width="287.99982"
   xml:space="preserve"
   id="svg2"
   version="1.1"
   sodipodi:docname="logo.svg"
   inkscape:version="0.92.3 (2405546, 2018-03-11)"><sodipodi:namedview
     pagecolor="#ffffff"
     bordercolor="#666666"
     borderopacity="1"
     objecttolerance="10"
     gridtolerance="10"
     guidetolerance="10"
     inkscape:pageopacity="0"
     inkscape:pageshadow="2"
     inkscape:window-width="714"
     inkscape:window-height="480"
     id="namedview28"
     showgrid="false"
     fit-margin-top="0"
     fit-margin-left="0"
     fit-margin-right="0"
     fit-margin-bottom="0"
     inkscape:zoom="0.36828478"
     inkscape:cx="-119.61131"
     inkscape:cy="56.27588"
     inkscape:window-x="331"
     inkscape:window-y="92"
     inkscape:window-maximized="0"
     inkscape:current-layer="svg2" /><metadata
     id="metadata8"><rdf:RDF><cc:Work
         rdf:about=""><dc:format>image/svg+xml</dc:format><dc:type
           rdf:resource="http://purl.org/dc/dcmitype/StillImage" /><dc:title></dc:title></cc:Work></rdf:RDF></metadata><defs
     id="defs6"><clipPath
       id="clipPath22"
       clipPathUnits="userSpaceOnUse"><path
         id="path20"
         d="M 0,288 H 432 V 0 H 0 Z"
         inkscape:connector-curvature="0" /></clipPath></defs><g
     transform="matrix(1.3333333,0,0,-1.3333333,-144.0003,227.32279)"
     id="g10"><g
       transform="translate(240.3262,165.5146)"
       id="g12"><path
         id="path14"
         style="fill:#ed1c24;fill-opacity:1;fill-rule:nonzero;stroke:none"
         d="m 0,0 h -4.104 l 1.333,4.976 h -9.22 L -13.325,0 h -4.106 l -2.463,-9.221 h 4.095 l -1.334,-4.975 h 9.222 l 1.334,4.975 h 4.114 z"
         inkscape:connector-curvature="0" /></g><g
       id="g16"><g
         clip-path="url(#clipPath22)"
         id="g18"><g
           transform="translate(206.5029,154.3774)"
           id="g24"><path
             id="path26"
             style="fill:#231f20;fill-opacity:1;fill-rule:nonzero;stroke:none"
             d="m 0,0 c 0,1.906 -1.207,2.859 -3.619,2.859 h -12.679 c -0.615,0 -0.922,0.238 -0.922,0.714 0,0.138 0.023,0.285 0.069,0.439 l 1.107,4.057 c 0.199,0.752 0.683,1.129 1.452,1.129 H 0.392 l 4.15,6.916 h -23.053 c -3.074,0 -5.017,-1.537 -5.832,-4.61 l -2.628,-9.798 c -0.169,-0.661 -0.254,-1.245 -0.254,-1.751 0,-1.906 1.207,-2.859 3.62,-2.859 h 12.678 c 0.615,0 0.922,-0.238 0.922,-0.715 0,-0.123 -0.023,-0.261 -0.068,-0.414 l -1.084,-4.058 c -0.216,-0.768 -0.707,-1.152 -1.475,-1.152 h -14.984 l -4.15,-6.916 h 23.052 c 3.074,0 5.026,1.544 5.856,4.633 l 2.605,9.774 C -0.084,-1.091 0,-0.507 0,0"
             inkscape:connector-curvature="0" /></g><g
           transform="translate(243.3174,170.4912)"
           id="g28"><path
             id="path30"
             style="fill:#231f20;fill-opacity:1;fill-rule:nonzero;stroke:none"
             d="m 0,0 -6.478,-24.205 c -0.215,-0.768 -0.708,-1.152 -1.475,-1.152 h -4.608 l 1.21,4.525 h -9.22 l -1.21,-4.525 h -0.004 -4.61 c -0.6,0 -0.899,0.238 -0.899,0.715 0,0.122 0.023,0.268 0.069,0.437 L -20.747,0 h -9.221 l -7.4,-27.663 c -0.169,-0.66 -0.253,-1.244 -0.253,-1.752 0,-1.905 1.205,-2.857 3.619,-2.857 h 29.968 c 3.073,0 5.025,1.536 5.854,4.609 L 9.221,0 Z"
             inkscape:connector-curvature="0" /></g><g
           transform="translate(254.8437,170.4912)"
           id="g32"><path
             id="path34"
             style="fill:#231f20;fill-opacity:1;fill-rule:nonzero;stroke:none"
             d="M 0,0 -8.645,-32.272 H 0.576 L 9.221,0 Z"
             inkscape:connector-curvature="0" /></g><g
           transform="translate(289.4912,154.3774)"
           id="g36"><path
             id="path38"
             style="fill:#231f20;fill-opacity:1;fill-rule:nonzero;stroke:none"
             d="m 0,0 c 0,1.906 -1.207,2.859 -3.62,2.859 h -12.679 c -0.614,0 -0.922,0.238 -0.922,0.714 0,0.138 0.024,0.285 0.07,0.439 l 1.107,4.057 c 0.199,0.752 0.683,1.129 1.452,1.129 H 0.392 l 4.149,6.916 h -23.053 c -3.073,0 -5.017,-1.537 -5.832,-4.61 l -2.628,-9.798 c -0.169,-0.661 -0.253,-1.245 -0.253,-1.751 0,-1.906 1.206,-2.859 3.62,-2.859 h 12.678 c 0.614,0 0.922,-0.238 0.922,-0.715 0,-0.123 -0.023,-0.261 -0.069,-0.414 l -1.083,-4.058 c -0.216,-0.768 -0.707,-1.152 -1.476,-1.152 h -14.983 l -4.151,-6.916 h 23.052 c 3.074,0 5.027,1.544 5.856,4.633 l 2.605,9.774 C -0.085,-1.091 0,-0.507 0,0"
             inkscape:connector-curvature="0" /></g><g
           transform="translate(303.4141,162.4463)"
           id="g40"><path
             id="path42"
             style="fill:#231f20;fill-opacity:1;fill-rule:nonzero;stroke:none"
             d="m 0,0 c 0.2,0.752 0.684,1.129 1.452,1.129 h 14.985 l 4.149,6.916 H -2.467 c -3.073,0 -5.017,-1.537 -5.832,-4.61 l -2.628,-9.798 c -0.169,-0.66 -0.253,-1.244 -0.253,-1.751 0,-1.906 1.206,-2.859 3.619,-2.859 H 5.117 c 0.615,0 0.923,-0.238 0.923,-0.715 0,-0.123 -0.023,-0.261 -0.069,-0.414 L 4.888,-16.16 C 4.672,-16.928 4.18,-17.312 3.412,-17.312 h -14.984 l -4.15,-6.916 H 7.33 c 3.074,0 5.026,1.544 5.856,4.633 l 2.605,9.774 c 0.169,0.661 0.254,1.245 0.254,1.752 0,1.906 -1.208,2.859 -3.62,2.859 H -0.254 c -0.614,0 -0.922,0.238 -0.922,0.714 0,0.139 0.024,0.285 0.07,0.439 z"
             inkscape:connector-curvature="0" /></g><g
           transform="translate(307.8936,129.3369)"
           id="g44"><path
             id="path46"
             style="fill:#ed1c24;fill-opacity:1;fill-rule:nonzero;stroke:none"
             d="m 0,0 -2.219,-8.265 h -2.755 l 1.936,7.233 c 0.015,0.05 0.02,0.094 0.02,0.131 0,0.141 -0.088,0.214 -0.268,0.214 h -2.41 l -2.032,-7.578 h -2.755 L -7.9,1.378 h 6.887 c 0.726,0 1.088,-0.287 1.088,-0.861 C 0.075,0.365 0.05,0.193 0,0 m -13.678,-8.265 h -5.509 c -0.721,0 -1.082,0.285 -1.082,0.854 0,0.151 0.025,0.326 0.076,0.524 L -18.348,0 c 0.244,0.919 0.825,1.378 1.743,1.378 h 5.51 c 0.726,0 1.088,-0.287 1.088,-0.861 0,-0.152 -0.025,-0.324 -0.075,-0.517 l -1.846,-6.887 c -0.248,-0.919 -0.831,-1.378 -1.75,-1.378 m -11.46,0 2.582,9.643 h 2.756 l -2.583,-9.643 z m -5.461,5.683 h 3.788 c 0.721,0 1.082,-0.285 1.082,-0.855 0,-0.151 -0.026,-0.326 -0.077,-0.523 l -0.777,-2.92 c -0.248,-0.923 -0.831,-1.385 -1.75,-1.385 h -6.888 l 1.241,2.067 h 4.476 c 0.23,0 0.376,0.115 0.441,0.344 l 0.324,1.212 c 0.013,0.046 0.02,0.087 0.02,0.124 0,0.143 -0.092,0.213 -0.275,0.213 h -3.788 c -0.721,0 -1.081,0.285 -1.081,0.856 0,0.151 0.025,0.325 0.075,0.522 L -33.003,0 c 0.243,0.919 0.824,1.378 1.742,1.378 h 6.889 l -1.24,-2.065 h -4.477 c -0.23,0 -0.375,-0.114 -0.433,-0.339 l -0.332,-1.211 c -0.013,-0.047 -0.021,-0.09 -0.021,-0.131 0,-0.144 0.092,-0.214 0.276,-0.214 m -9.194,-5.683 2.582,9.643 h 2.756 l -2.583,-9.643 z m -8.187,0 -0.862,9.643 h 2.927 l 0.517,-5.785 3.616,5.785 h 2.928 l -6.028,-9.643 z m -10.619,4.133 c -0.248,-0.919 -0.832,-1.377 -1.75,-1.377 h -1.377 l -0.737,-2.756 h -2.755 l 0.737,2.756 h -1.377 c -0.722,0 -1.082,0.284 -1.082,0.854 0,0.151 0.025,0.326 0.076,0.523 l 1.473,5.51 h 2.756 l -1.199,-4.477 c -0.014,-0.046 -0.02,-0.087 -0.02,-0.124 0,-0.147 0.094,-0.22 0.283,-0.22 h 2.059 c 0.23,0 0.373,0.115 0.434,0.344 l 1.198,4.477 h 2.755 z m -9.16,3.445 h -2.41 l -2.032,-7.578 h -2.755 l 2.031,7.578 h -2.41 l 0.544,2.065 h 7.583 z m -11.425,-7.578 h -2.755 l 2.583,9.643 h 2.754 z m -4.89,3.96 h -0.371 l 0.861,-3.96 h -2.584 l -1.232,5.683 h 2.066 c 0.23,0 0.374,0.114 0.434,0.345 l 0.324,1.205 c 0.013,0.05 0.02,0.094 0.02,0.131 0,0.141 -0.09,0.214 -0.268,0.214 h -2.411 l -2.032,-7.578 h -2.755 l 2.583,9.643 h 6.888 c 0.725,0 1.087,-0.287 1.087,-0.861 0,-0.152 -0.024,-0.324 -0.075,-0.517 l -0.785,-2.927 c -0.248,-0.919 -0.831,-1.378 -1.75,-1.378 m -11.143,-3.96 h -5.51 c -0.72,0 -1.081,0.285 -1.081,0.854 0,0.151 0.025,0.326 0.076,0.524 l 2.211,8.265 h 2.755 l -1.935,-7.232 c -0.014,-0.05 -0.022,-0.093 -0.022,-0.13 0,-0.143 0.092,-0.214 0.276,-0.214 h 2.06 c 0.229,0 0.376,0.115 0.44,0.344 l 1.936,7.232 h 2.755 l -2.211,-8.265 c -0.248,-0.919 -0.831,-1.378 -1.75,-1.378 m -13.318,2.067 h 5.165 l -1.239,-2.067 h -6.2 c -0.72,0 -1.081,0.285 -1.081,0.854 0,0.151 0.025,0.326 0.076,0.524 L -109.969,0 c 0.244,0.919 0.825,1.378 1.743,1.378 h 6.888 l -1.24,-2.065 h -4.477 c -0.23,0 -0.377,-0.116 -0.441,-0.345 l -1.287,-4.822 c -0.014,-0.05 -0.022,-0.093 -0.022,-0.13 0,-0.143 0.091,-0.214 0.27,-0.214 m -4.98,3.616 -0.461,-1.723 h -4.477 l -0.51,-1.893 h 5.51 l -1.239,-2.067 h -7.577 l 2.582,9.643 h 8.267 l -1.241,-2.065 h -4.821 l -0.51,-1.895 z m -14.214,0 h 3.788 c 0.721,0 1.081,-0.285 1.081,-0.855 0,-0.151 -0.025,-0.326 -0.076,-0.523 l -0.777,-2.92 c -0.248,-0.923 -0.832,-1.385 -1.751,-1.385 h -6.887 l 1.24,2.067 h 4.477 c 0.229,0 0.376,0.115 0.44,0.344 l 0.324,1.212 c 0.014,0.046 0.021,0.087 0.021,0.124 0,0.143 -0.092,0.213 -0.275,0.213 h -3.789 c -0.72,0 -1.081,0.285 -1.081,0.856 0,0.151 0.025,0.325 0.076,0.522 L -130.134,0 c 0.244,0.919 0.825,1.378 1.743,1.378 h 6.889 l -1.241,-2.065 h -4.476 c -0.231,0 -0.375,-0.114 -0.434,-0.339 l -0.331,-1.211 c -0.014,-0.047 -0.021,-0.09 -0.021,-0.131 0,-0.144 0.091,-0.214 0.276,-0.214 m -6.476,7.524 -4.489,-16.77 H 1.947 l 4.471,16.77 z"
             inkscape:connector-curvature="0" /></g><g
           transform="translate(294.5254,128.6494)"
           id="g48"><path
             id="path50"
             style="fill:#ed1c24;fill-opacity:1;fill-rule:nonzero;stroke:none"
             d="m 0,0 h -2.059 c -0.234,0 -0.383,-0.115 -0.448,-0.345 l -1.287,-4.821 c -0.015,-0.051 -0.021,-0.094 -0.021,-0.131 0,-0.142 0.091,-0.214 0.275,-0.214 h 2.06 c 0.229,0 0.376,0.115 0.44,0.345 l 1.288,4.821 c 0.015,0.05 0.021,0.094 0.021,0.131 C 0.269,-0.072 0.18,0 0,0"
             inkscape:connector-curvature="0" /></g><g
           transform="translate(158.0815,133.2041)"
           id="g52"><path
             id="path54"
             style="fill:#231f20;fill-opacity:1;fill-rule:nonzero;stroke:none"
             d="m 0,0 -0.137,-0.229 h -11.276 l 5.969,5.968 8.201,8.198 0.102,-0.985 C 2.933,12.245 2.97,11.519 2.97,10.796 2.97,6.991 1.943,3.258 0,0 M -1.76,-2.511 C -4.613,-6.017 -8.584,-8.553 -12.941,-9.65 l -0.26,-0.066 -7.974,7.975 h 20.04 z m -14.2,-7.672 c -0.707,-0.073 -1.434,-0.11 -2.159,-0.11 -3.806,0 -7.539,1.026 -10.796,2.97 l -0.23,0.136 V 4.088 l 2.87,-2.864 11.299,-11.304 z m -14.697,3.995 -0.769,0.625 c -3.506,2.852 -6.042,6.824 -7.14,11.181 l -0.065,0.259 7.974,7.975 z m -8.441,14.825 c -0.073,0.706 -0.11,1.432 -0.11,2.159 0,3.806 1.026,7.538 2.969,10.796 l 0.137,0.23 h 11.276 l -14.17,-14.17 z m 4.619,15.465 c 2.854,3.507 6.825,6.043 11.182,7.14 l 0.259,0.066 7.975,-7.975 h -20.041 z m 14.2,7.672 c 0.706,0.074 1.433,0.111 2.16,0.111 3.805,0 7.538,-1.027 10.795,-2.969 l 0.23,-0.138 V 17.503 l -14.169,14.169 z m 14.697,-3.994 0.769,-0.625 c 3.507,-2.853 6.042,-6.824 7.14,-11.181 L 2.393,15.715 -5.582,7.74 Z m 10.535,9.508 h -43.537 l -11.19,-41.801 c -1.511,-5.642 2.741,-11.183 8.583,-11.183 H 2.346 l 11.19,41.8 c 1.51,5.644 -2.742,11.184 -8.583,11.184"
             inkscape:connector-curvature="0" /></g></g></g></g></svg>